<?xml version="1.0" encoding="UTF-8" standalone="no"?>
<svg
   xmlns:dc="http://purl.org/dc/elements/1.1/"
   xmlns:cc="http://creativecommons.org/ns#"
   xmlns:rdf="http://www.w3.org/1999/02/22-rdf-syntax-ns#"
   xmlns:svg="http://www.w3.org/2000/svg"
   xmlns="http://www.w3.org/2000/svg"
   viewBox="0 0 290.66666 268"
   height="268"
   width="290.66666"
   xml:space="preserve"
   id="svg2"
   version="1.1"><metadata
     id="metadata8"><rdf:RDF><cc:Work
         rdf:about=""><dc:format>image/svg+xml</dc:format><dc:type
           rdf:resource="http://purl.org/dc/dcmitype/StillImage" /></cc:Work></rdf:RDF></metadata><defs
     id="defs6" /><g
     transform="matrix(1.3333333,0,0,-1.3333333,0,268)"
     id="g10"><g
       transform="scale(0.1)"
       id="g12"><path
         id="path14"
         style="fill:#7dc245;fill-opacity:1;fill-rule:evenodd;stroke:none"
         d="m 950.98,1295.51 c -50.671,-50.35 -92.5,-97.7 -125.468,-142.03 -33.012,-44.34 -50,-67.97 -51.024,-70.98 -61.988,43.01 -117.648,76.84 -166.988,101.48 -49.34,24.34 -75.352,36.68 -78.012,37 83.672,-65.67 158.172,-160.67 223.524,-285 65.308,-124.648 116.636,-239.339 153.976,-343.992 37.66,-105 56.84,-160.816 57.5,-167.5 -58.668,300 -77.5,520.512 -56.476,661.492 20.968,141.01 35.308,210.86 42.968,209.53" /><path
         id="path16"
         style="fill:#7dc245;fill-opacity:1;fill-rule:evenodd;stroke:none"
         d="m 745.512,1260.51 c -27.032,-8.01 -38.871,-31.02 -35.512,-69.03 8.672,-36.99 26.988,-55.15 55,-54.49 27.34,8.01 39.141,31.02 35.512,68.99 -8.364,37.34 -26.684,55.5 -55,54.53" /><path
         id="path18"
         style="fill:#28a8e1;fill-opacity:1;fill-rule:evenodd;stroke:none"
         d="m 1651.99,1220.98 c -2.65,-0.32 -28.67,-12.66 -78.01,-37 -49.33,-24.64 -104.84,-58.47 -166.48,-101.48 -1.33,3.01 -18.52,26.64 -51.52,70.98 -32.97,44.33 -74.81,91.68 -125.47,142.03 7.65,1.33 21.99,-68.52 42.97,-209.53 21.36,-140.98 2.5,-361.492 -56.49,-661.492 0.67,6.684 19.85,62.5 57.5,167.5 37.66,104.653 88.99,219.344 153.99,343.992 65.35,124.33 139.84,219.33 223.51,285" /><path
         id="path20"
         style="fill:#28a8e1;fill-opacity:1;fill-rule:evenodd;stroke:none"
         d="m 1416.99,1136.99 c 28.32,-0.66 46.68,17.5 55,54.49 3.67,38.01 -8.16,61.02 -35.51,69.03 -28,0.97 -46.32,-17.19 -55,-54.53 -3.32,-37.97 8.52,-60.98 35.51,-68.99" /><path
         id="path22"
         style="fill:#eb2126;fill-opacity:1;fill-rule:evenodd;stroke:none"
         d="m 1088.98,1343.48 c -52.65,53.67 -103.32,101.36 -151.992,143 -48.976,41.68 -75.148,63.68 -78.508,66.02 74.02,-96.68 128.161,-223.67 162.5,-381.02 34.33,-157.34 55.5,-288.468 63.51,-393.468 l 4.49,-65.512 5,65.512 c 8.01,105 29.18,236.128 63.52,393.468 33.98,157.35 88.16,284.34 162.5,381.02 -3.36,-2.34 -29.49,-24.34 -78.52,-66.02 -48.67,-41.64 -99.49,-89.33 -152.5,-143" /><path
         id="path24"
         style="fill:#eb2126;fill-opacity:1;fill-rule:evenodd;stroke:none"
         d="m 1082.5,1521.99 c -27.66,-6.01 -41.17,-28.01 -40.51,-66.01 5.35,-37.66 22.15,-57.15 50.51,-58.48 27.66,5.66 41.17,27.66 40.51,65.98 -5.35,37.69 -22.19,57.18 -50.51,58.51" /><path
         id="path26"
         style="fill:#f5941e;fill-opacity:1;fill-rule:evenodd;stroke:none"
         d="M 1986.48,1514.49 1900.98,1375 h 40.5 l 45,139.49" /><path
         id="path28"
         style="fill:#eb2126;fill-opacity:1;fill-rule:evenodd;stroke:none"
         d="M 1794.49,1375 1318.01,424.488 1913.48,1288.48 1794.49,1375" /><path
         id="path30"
         style="fill:#eb2126;fill-opacity:1;fill-rule:evenodd;stroke:none"
         d="m 1868.01,1148.98 -550,-723.98 668.47,810.51 -118.47,-86.53" /><path
         id="path32"
         style="fill:#eb2126;fill-opacity:1;fill-rule:evenodd;stroke:none"
         d="M 2070.51,1255.98 2178.48,1375 2060,1288.48 l 10.51,-32.5" /><path
         id="path34"
         style="fill:#f5941e;fill-opacity:1;fill-rule:evenodd;stroke:none"
         d="M 1986.48,1235.51 1318.01,425 l 787.5,723.98 -119.03,86.53" /><path
         id="path36"
         style="fill:#f5941e;fill-opacity:1;fill-rule:evenodd;stroke:none"
         d="M 1913.48,1288.98 1318.01,425 l 550,724.49 45.47,139.49" /><path
         id="path38"
         style="fill:#f5eb14;fill-opacity:1;fill-rule:evenodd;stroke:none"
         d="m 2060,1288.48 118.48,86.52 h -146.49 l -45.51,139.49 -45,-139.49 h -146.99 l 118.52,-86.52 -45,-139.5 118.47,86.53 119.03,-86.53 -35,106.53 -10.51,32.97" /><path
         id="path40"
         style="fill:#f5941e;fill-opacity:1;fill-rule:evenodd;stroke:none"
         d="M 277.5,1375 191.988,1514.49 237.5,1375 h 40" /><path
         id="path42"
         style="fill:#eb2126;fill-opacity:1;fill-rule:evenodd;stroke:none"
         d="M 191.988,1235.51 860.512,425 l -550,723.98 -118.524,86.53" /><path
         id="path44"
         style="fill:#eb2126;fill-opacity:1;fill-rule:evenodd;stroke:none"
         d="M 0,1375 108.012,1255.51 118.48,1288.48 0,1375" /><path
         id="path46"
         style="fill:#eb2126;fill-opacity:1;fill-rule:evenodd;stroke:none"
         d="M 265.512,1288.48 860.98,424.488 383.98,1375 265.512,1288.48" /><path
         id="path48"
         style="fill:#f5941e;fill-opacity:1;fill-rule:evenodd;stroke:none"
         d="M 73.4805,1148.98 860.98,425 191.988,1235.51 73.4805,1148.98" /><path
         id="path50"
         style="fill:#f5941e;fill-opacity:1;fill-rule:evenodd;stroke:none"
         d="M 310.98,1149.49 860.98,425 265.512,1288.98 310.98,1149.49" /><path
         id="path52"
         style="fill:#f5eb14;fill-opacity:1;fill-rule:evenodd;stroke:none"
         d="M 191.988,1235.51 310.98,1148.98 265.512,1288.48 383.98,1375 H 237.5 l -45.512,139.49 -45,-139.49 H 0 l 118.48,-86.52 -10.468,-32.97 -34.5315,-106.53 118.5075,86.53" /><path
         id="path54"
         style="fill:#f59123;fill-opacity:1;fill-rule:evenodd;stroke:none"
         d="m 545.98,1541.99 14.02,-38.01 20.98,34.03 40,1.99 -25.468,30.51 10.968,38.47 -37.5,-14.49 -33.468,21.99 2.968,-40 -31.492,-25 38.992,-9.49" /><path
         id="path56"
         style="fill:#f59123;fill-opacity:1;fill-rule:evenodd;stroke:none"
         d="m 1028.01,1699.49 15.47,-26.99 12.03,28.98 30.47,6.53 -23.99,20 3.01,30.97 -26.52,-16.48 -28.48,12.5 7.5,-30 -20.512,-23.52 31.022,-1.99" /><path
         id="path58"
         style="fill:#f59123;fill-opacity:1;fill-rule:evenodd;stroke:none"
         d="m 326.48,1697.5 15.508,-26.99 11.992,28.98 30,6.49 -23.468,20 2.968,31.01 -26.492,-16.48 -28.508,12.5 7.5,-30 -20.468,-23.52 30.968,-1.99" /><path
         id="path60"
         style="fill:#f59123;fill-opacity:1;fill-rule:evenodd;stroke:none"
         d="m 1107.5,1876.48 33.98,32 45.51,-9.5 -20,42 23.01,40.5 -46.02,-5.97 -31.48,34.49 -8.52,-46.02 -42.5,-18.98 41.02,-21.99 5,-46.53" /><path
         id="path62"
         style="fill:#f59123;fill-opacity:1;fill-rule:evenodd;stroke:none"
         d="m 1477.5,1512.5 -14.49,-44.49 43.98,15.47 38.01,-27.5 -1.52,47.03 38,27.5 -45,12.97 -14.49,44.53 -26.48,-38.52 h -46.53 l 28.52,-36.99" /><path
         id="path64"
         style="fill:#f59123;fill-opacity:1;fill-rule:evenodd;stroke:none"
         d="m 1726.48,1651.48 11.53,-45.5 28.98,37.03 46.49,-3.01 -25.98,38.48 16.99,43.51 -45,-12.5 -36.01,29.49 -1.49,-46.48 -39.49,-25 43.98,-16.02" /><path
         id="path66"
         style="fill:#f59123;fill-opacity:1;fill-rule:evenodd;stroke:none"
         d="m 663.98,1849.49 31.02,-41.99 14.488,50 49.492,16.99 -43,28.99 -0.468,52.5 -41.532,-32 -50,15.51 18.008,-48.98 -30.508,-42.5 52.5,1.48" /><path
         id="path68"
         style="fill:#f59123;fill-opacity:1;fill-rule:evenodd;stroke:none"
         d="m 1412.5,1691.48 21.99,11.53 21.99,-11.53 -3.98,24.5 17.5,17.03 -24.49,3.47 -11.02,22.5 -11.01,-22.5 -24.5,-3.47 18.01,-17.03 -4.49,-24.5" /></g></g></svg>
