<?xml version="1.0" encoding="UTF-8" standalone="no"?>
<svg
   xmlns:dc="http://purl.org/dc/elements/1.1/"
   xmlns:cc="http://creativecommons.org/ns#"
   xmlns:rdf="http://www.w3.org/1999/02/22-rdf-syntax-ns#"
   xmlns:svg="http://www.w3.org/2000/svg"
   xmlns="http://www.w3.org/2000/svg"
   viewBox="0 0 290.66666 268"
   height="268"
   width="290.66666"
   xml:space="preserve"
   id="svg2"
   version="1.1"><metadata
     id="metadata8"><rdf:RDF><cc:Work
         rdf:about=""><dc:format>image/svg+xml</dc:format><dc:type
           rdf:resource="http://purl.org/dc/dcmitype/StillImage" /></cc:Work></rdf:RDF></metadata><defs
     id="defs6" /><g
     transform="matrix(1.3333333,0,0,-1.3333333,0,268)"
     id="g10"><g
       transform="scale(0.1)"
       id="g12"><path
         id="path14"
         style="fill:#7dc245;fill-opacity:1;fill-rule:evenodd;stroke:none"
         d="m 950.98,1295.51 c -50.671,-50.35 -92.5,-97.7 -125.468,-142.03 -33.012,-44.34 -50,-67.97 -51.024,-70.98 -61.988,43.01 -117.648,76.84 -166.988,101.48 -49.34,24.34 -75.352,36.68 -78.012,37 83.672,-65.67 158.172,-160.67 223.524,-285 65.308,-124.648 116.636,-239.339 153.976,-343.992 37.66,-105 56.84,-160.816 57.5,-167.5 -58.668,300 -77.5,520.512 -56.476,661.492 20.968,141.01 35.308,210.86 42.968,209.53" /><path
         id="path16"
         style="fill:#7dc245;fill-opacity:1;fill-rule:evenodd;stroke:none"
         d="m 745.512,1260.51 c -27.032,-8.01 -38.871,-31.02 -35.512,-69.03 8.672,-36.99 26.988,-55.15 55,-54.49 27.34,8.01 39.141,31.02 35.512,68.99 -8.364,37.34 -26.684,55.5 -55,54.53" /><path
         id="path18"
         style="fill:#28a8e1;fill-opacity:1;fill-rule:evenodd;stroke:none"
         d="m 1651.99,1220.98 c -2.65,-0.32 -28.67,-12.66 -78.01,-37 -49.33,-24.64 -104.84,-58.47 -166.48,-101.48 -1.33,3.01 -18.52,26.64 -51.52,70.98 -32.97,44.33 -74.81,91.68 -125.47,142.03 7.65,1.33 21.99,-68.52 42.97,-209.53 21.36,-140.98 2.5,-361.492 -56.49,-661.492 0.67,6.684 19.85,62.5 57.5,167.5 37.66,104.653 88.99,219.344 153.99,343.992 65.35,124.33 139.84,219.33 223.51,285" /><path
         id="path20"
         style="fill:#28a8e1;fill-opacity:1;fill-rule:evenodd;stroke:none"
         d="m 1416.99,1136.99 c 28.32,-0.66 46.68,17.5 55,54.49 3.67,38.01 -8.16,61.02 -35.51,69.03 -28,0.97 -46.32,-17.19 -55,-54.53 -3.32,-37.97 8.52,-60.98 35.51,-68.99" /><path
         id="path22"
         style="fill:#eb2126;fill-opacity:1;fill-rule:evenodd;stroke:none"
         d="m 1088.98,1343.48 c -52.65,53.67 -103.32,101.36 -151.992,143 -48.976,41.68 -75.148,63.68 -78.508,66.02 74.02,-96.68 128.161,-223.67 162.5,-381.02 34.33,-157.34 55.5,-288.468 63.51,-393.468 l 4.49,-65.512 5,65.512 c 8.01,105 29.18,236.128 63.52,393.468 33.98,157.35 88.16,284.34 162.5,381.02 -3.36,-2.34 -29.49,-24.34 -78.52,-66.02 -48.67,-41.64 -99.49,-89.33 -152.5,-143" /><path
         id="path24"
         style="fill:#eb2126;fill-opacity:1;fill-rule:evenodd;stroke:none"
         d="m 1082.5,1521.99 c -27.66,-6.01 -41.17,-28.01 -40.51,-66.01 5.35,-37.66 22.15,-57.15 50.51,-58.48 27.66,5.66 41.17,27.66 40.51,65.98 -5.35,37.69 -22.19,57.18 -50.51,58.51" /><path
         id="path26"
         style="fill:#f5941e;fill-opacity:1;fill-rule:evenodd;stroke:none"
         d="M 1986.48,1514.49 1900.98,1375 h 40.5 l 45,139.49" /><path
         id="path28"
         style="fill:#eb2126;fill-opacity:1;fill-rule:evenodd;stroke:none"
         d="M 1794.49,1375 1318.01,424.488 1913.48,1288.48 1794.49,1375" /><path
         id="path30"
         style="fill:#eb2126;fill-opacity:1;fill-rule:evenodd;stroke:none"
         d="m 1868.01,1148.98 -550,-723.98 668.47,810.51 -118.47,-86.53" /><path
         id="path32"
         style="fill:#eb2126;fill-opacity:1;fill-rule:evenodd;stroke:none"
         d="M 2070.51,1255.98 2178.48,1375 2060,1288.48 l 10.51,-32.5" /><path
         id="path34"
         style="fill:#f5941e;fill-opacity:1;fill-rule:evenodd;stroke:none"
         d="M 1986.48,1235.51 1318.01,425 l 787.5,723.98 -119.03,86.53" /><path
         id="path36"
         style="fill:#f5941e;fill-opacity:1;fill-rule:evenodd;stroke:none"
         d="M 1913.48,1288.98 1318.01,425 l 550,724.49 45.47,139.49" /><path
         id="path38"
         style="fill:#f5eb14;fill-opacity:1;fill-rule:evenodd;stroke:none"
         d="m 2060,1288.48 118.48,86.52 h -146.49 l -45.51,139.49 -45,-139.49 h -146.99 l 118.52,-86.52 -45,-139.5 118.47,86.53 119.03,-86.53 -35,106.53 -10.51,32.97" /><path
         id="path40"
         style="fill:#f5941e;fill-opacity:1;fill-rule:evenodd;stroke:none"
         d="M 277.5,1375 191.988,1514.49 237.5,1375 h 40" /><path
         id="path42"
         style="fill:#eb2126;fill-opacity:1;fill-rule:evenodd;stroke:none"
         d="M 191.988,1235.51 860.512,425 l -550,723.98 -118.524,86.53" /><path
         id="path44"
         style="fill:#eb2126;fill-opacity:1;fill-rule:evenodd;stroke:none"
         d="M 0,1375 108.012,1255.51 118.48,1288.48 0,1375" /><path
         id="path46"
         style="fill:#eb2126;fill-opacity:1;fill-rule:evenodd;stroke:none"
         d="M 265.512,1288.48 860.98,424.488 383.98,1375 265.512,1288.48" /><path
         id="path48"
         style="fill:#f5941e;fill-opacity:1;fill-rule:evenodd;stroke:none"
         d="M 73.4805,1148.98 860.98,425 191.988,1235.51 73.4805,1148.98" /><path
         id="path50"
         style="fill:#f5941e;fill-opacity:1;fill-rule:evenodd;stroke:none"
         d="M 310.98,1149.49 860.98,425 265.512,1288.98 310.98,1149.49" /><path
         id="path52"
         style="fill:#f5eb14;fill-opacity:1;fill-rule:evenodd;stroke:none"
         d="M 191.988,1235.51 310.98,1148.98 265.512,1288.48 383.98,1375 H 237.5 l -45.512,139.49 -45,-139.49 H 0 l 118.48,-86.52 -10.468,-32.97 -34.5315,-106.53 118.5075,86.53" /><path
         id="path54"
         style="fill:#f59123;fill-opacity:1;fill-rule:evenodd;stroke:none"
         d="m 545.98,1541.99 14.02,-38.01 20.98,34.03 40,1.99 -25.468,30.51 10.968,38.47 -37.5,-14.49 -33.468,21.99 2.968,-40 -31.492,-25 38.992,-9.49" /><path
         id="path56"
         style="fill:#f59123;fill-opacity:1;fill-rule:evenodd;stroke:none"
         d="m 1028.01,1699.49 15.47,-26.99 12.03,28.98 30.47,6.53 -23.99,20 3.01,30.97 -26.52,-16.48 -28.48,12.5 7.5,-30 -20.512,-23.52 31.022,-1.99" /><path
         id="path58"
         style="fill:#f59123;fill-opacity:1;fill-rule:evenodd;stroke:none"
         d="m 326.48,1697.5 15.508,-26.99 11.992,28.98 30,6.49 -23.468,20 2.968,31.01 -26.492,-16.48 -28.508,12.5 7.5,-30 -20.468,-23.52 30.968,-1.99" /><path
         id="path60"
         style="fill:#f59123;fill-opacity:1;fill-rule:evenodd;stroke:none"
         d="m 1107.5,1876.48 33.98,32 45.51,-9.5 -20,42 23.01,40.5 -46.02,-5.97 -31.48,34.49 -8.52,-46.02 -42.5,-18.98 41.02,-21.99 5,-46.53" /><path
         id="path62"
         style="fill:#f59123;fill-opacity:1;fill-rule:evenodd;stroke:none"
         d="m 1477.5,1512.5 -14.49,-44.49 43.98,15.47 38.01,-27.5 -1.52,47.03 38,27.5 -45,12.97 -14.49,44.53 -26.48,-38.52 h -46.53 l 28.52,-36.99" /><path
         id="path64"
         style="fill:#f59123;fill-opacity:1;fill-rule:evenodd;stroke:none"
         d="m 1726.48,1651.48 11.53,-45.5 28.98,37.03 46.49,-3.01 -25.98,38.48 16.99,43.51 -45,-12.5 -36.01,29.49 -1.49,-46.48 -39.49,-25 43.98,-16.02" /><path
         id="path66"
         style="fill:#f59123;fill-opacity:1;fill-rule:evenodd;stroke:none"
         d="m 663.98,1849.49 31.02,-41.99 14.488,50 49.492,16.99 -43,28.99 -0.468,52.5 -41.532,-32 -50,15.51 18.008,-48.98 -30.508,-42.5 52.5,1.48" /><path
         id="path68"
         style="fill:#f59123;fill-opacity:1;fill-rule:evenodd;stroke:none"
         d="m 1412.5,1691.48 21.99,11.53 21.99,-11.53 -3.98,24.5 17.5,17.03 -24.49,3.47 -11.02,22.5 -11.01,-22.5 -24.5,-3.47 18.01,-17.03 -4.49,-24.5" /><path
         id="path70"
         style="fill:#f59123;fill-opacity:1;fill-rule:evenodd;stroke:none"
         d="m 1590,1790.51 43.01,38.98 56.99,-13.01 -24.02,53.01 30,50 -57.97,-6.48 -38.01,43.98 -11.99,-56.99 -53.52,-22.5 50.51,-29.02 5,-57.97" /><path
         id="path72"
         style="fill:#ffffff;fill-opacity:1;fill-rule:nonzero;stroke:none"
         d="M 330.309,61.9883 V 241.371 h 73.75 c 22.703,0 40.781,-8.133 54.222,-24.383 13.52,-16.168 20.309,-37.968 20.309,-65.468 0,-27.301 -6.949,-49.059 -20.781,-65.3091 -13.75,-16.1718 -32.34,-24.2226 -55.778,-24.2226 z m 24.222,20.7812 h 44.528 c 17.39,0 30.82,5.9805 40.32,17.9685 9.449,11.961 14.211,28.91 14.211,50.782 0,22.07 -4.61,39.101 -13.75,51.101 -9.059,12.07 -21.988,18.117 -38.75,18.117 H 354.531 Z M 507.699,192.621 h 21.8711 V 61.988 H 507.699 Z m -0.32,48.75 h 22.5 v -24.8516 h -22.5 z" /><path
         id="path74"
         style="fill:#ffffff;fill-opacity:1;fill-rule:nonzero;stroke:none"
         d="m 596.949,58.3984 c -12.73,0 -22.808,3.4414 -30.308,10.3125 -7.5,6.8789 -11.25,16.0899 -11.25,27.6602 0,11.7499 3.48,21.0899 10.468,27.9689 7.071,6.949 17.379,11.281 30.942,12.961 l 29.84,3.75 c 2.5,0.32 4.839,0.711 7.031,1.25 2.808,0.711 5,2.187 6.558,4.379 1.571,2.191 2.348,4.922 2.348,8.281 v 1.09 c 0,7.07 -2.656,12.539 -7.969,16.41 -5.308,3.949 -12.73,5.937 -22.187,5.937 -8.981,0 -16.012,-2.109 -21.094,-6.25 -5.117,-4.179 -8.207,-10.429 -9.219,-18.75 h -20.308 c 1.008,14.372 6.09,25.153 15.148,32.34 9.071,7.192 22.031,10.782 38.91,10.782 15.821,0 27.852,-3.43 36.09,-10.309 8.321,-6.871 12.5,-16.949 12.5,-30.16 V 84.3398 c 0,-2.1914 0.672,-3.9882 2.031,-5.3203 1.329,-1.3593 3.168,-2.0312 5.469,-2.0312 0.629,0 1.571,0.043 2.821,0.1601 1.25,0.1914 2.57,0.4727 4.058,0.7813 V 62.1484 c -2.109,-0.8203 -4.34,-1.4492 -6.719,-1.8789 -2.308,-0.5 -4.3,-0.7812 -5.937,-0.7812 -8.242,0 -14.223,2.2734 -17.973,6.7226 -2.5,3.0079 -4.289,7.2696 -5.308,12.8086 -1.68,-1.9882 -3.551,-3.8984 -5.621,-5.7812 -10.942,-9.918 -24.379,-14.8399 -40.321,-14.8399 z m 45.629,55.3126 v 14.219 c -4.058,-1.989 -8.598,-3.36 -13.598,-4.059 l -20.152,-2.973 c -10.629,-1.488 -18.398,-3.91 -23.277,-7.347 -4.813,-3.43 -7.192,-8.121 -7.192,-14.0627 0,-7.2969 1.95,-12.9297 5.942,-16.8672 3.937,-3.9922 9.609,-5.9414 17.027,-5.9414 11.563,0 21.293,3.1211 29.223,9.3711 5.39,4.3789 9.058,9.3008 10.929,14.8472 0.321,1.012 0.508,2.692 0.629,5 0.313,2.383 0.469,5 0.469,7.813 z" /><path
         id="path76"
         style="fill:#ffffff;fill-opacity:1;fill-rule:nonzero;stroke:none"
         d="M 701.719,61.9883 V 192.621 h 20.941 v -19.383 l 4.371,5.782 c 9.879,11.64 21.641,17.5 35.309,17.5 11.762,0 21.101,-3.43 27.969,-10.309 3.132,-3.121 5.511,-6.68 7.191,-10.621 l 3.59,4.371 c 9.379,11.019 20.629,16.559 33.75,16.559 13.75,0 24.301,-3.75 31.719,-11.25 7.39,-7.418 11.101,-17.93 11.101,-31.559 V 61.9883 h -21.879 v 84.2227 c 0,9.879 -2.031,17.379 -6.09,22.5 -4.07,5.199 -10,7.809 -17.812,7.809 -9.609,0 -17.188,-3.711 -22.82,-11.09 -5.539,-7.418 -8.278,-17.418 -8.278,-30 V 61.9883 H 778.75 V 151.52 c 0,8.128 -1.871,14.3 -5.629,18.601 -3.672,4.258 -9.019,6.399 -16.09,6.399 -9.801,0 -17.812,-4.18 -24.062,-12.5 -6.168,-8.36 -9.219,-19.02 -9.219,-32.032 V 61.9883 Z" /><path
         id="path78"
         style="fill:#ffffff;fill-opacity:1;fill-rule:nonzero;stroke:none"
         d="m 963.52,58.3984 c -18.129,0 -32.821,6.3321 -44.071,19.0625 -11.168,12.6993 -16.719,29.3791 -16.719,50.0001 0,20.629 5.551,37.269 16.719,50 11.25,12.699 25.942,19.059 44.071,19.059 18.199,0 32.89,-6.36 44.06,-19.059 11.13,-12.731 16.72,-29.371 16.72,-50 0,-20.621 -5.59,-37.3008 -16.72,-50.0001 C 996.41,64.7305 981.719,58.3984 963.52,58.3984 Z m 0,18.9024 c 11.441,0 20.621,4.539 27.5,13.5976 6.871,9.0625 10.31,21.2496 10.31,36.5626 0,15.309 -3.439,27.5 -10.31,36.559 -6.879,9.07 -16.059,13.601 -27.5,13.601 -11.571,0 -20.79,-4.531 -27.661,-13.601 -6.8,-9.059 -10.16,-21.25 -10.16,-36.559 0,-15.313 3.36,-27.5001 10.16,-36.5626 6.871,-9.0586 16.09,-13.5976 27.661,-13.5976 z" /><path
         id="path80"
         style="fill:#ffffff;fill-opacity:1;fill-rule:nonzero;stroke:none"
         d="M 1049.38,61.9883 V 192.621 h 20.93 v -19.223 l 4.85,6.403 c 9.45,11.14 21.4,16.719 35.78,16.719 14.37,0 25.47,-3.899 33.28,-11.719 7.81,-7.813 11.72,-18.903 11.72,-33.281 V 61.9883 h -22.03 V 144.02 c 0,11.449 -2.27,19.73 -6.72,24.851 -4.38,5.078 -11.53,7.649 -21.41,7.649 -10.62,0 -19.02,-4.02 -25.16,-12.032 -6.17,-8.039 -9.21,-18.867 -9.21,-32.5 V 61.9883 Z" /><path
         id="path82"
         style="fill:#ffffff;fill-opacity:1;fill-rule:nonzero;stroke:none"
         d="m 1238.4,58.3984 c -17.5,0 -31.49,6.4805 -41.88,19.5313 -10.31,13.1211 -15.47,30.7813 -15.47,52.9683 0,19.692 5,35.512 15,47.5 10,12.071 23.05,18.122 39.22,18.122 16.02,0 28.75,-6.829 38.13,-20.469 l 1.72,-2.34 v 67.66 h 21.87 V 61.9883 h -20.31 v 17.8125 l -2.81,-4.0625 c -9.07,-11.5586 -20.9,-17.3399 -35.47,-17.3399 z m 1.09,118.2816 c -12.19,0 -21.17,-3.91 -26.87,-11.719 -5.74,-7.813 -8.6,-20.27 -8.6,-37.34 0,-16.172 3.05,-28.6015 9.22,-37.3515 6.14,-8.6679 14.88,-12.9687 26.25,-12.9687 10.71,0 19.3,3.9883 25.78,12.039 6.57,8 9.85,18.5902 9.85,31.7112 0,17.82 -3.09,31.488 -9.22,41.097 -6.17,9.692 -14.96,14.532 -26.41,14.532 z" /><path
         id="path84"
         style="fill:#ffffff;fill-opacity:1;fill-rule:nonzero;stroke:none"
         d="m 1444.84,24.9609 c 12.58,0 22.19,4.0196 28.75,12.0274 6.64,7.9336 10,19.4922 10,34.6914 v 4.2187 l -0.15,-0.1601 c -9.06,-11.5586 -20.9,-17.3399 -35.47,-17.3399 -17.42,0 -31.33,6.4805 -41.72,19.5313 -10.31,13.1211 -15.47,30.7813 -15.47,52.9683 0,19.692 5.04,35.512 15.16,47.5 10.19,12.071 23.51,18.122 40,18.122 15.7,0 28.16,-6.829 37.34,-20.469 l 1.56,-2.18 v 18.75 h 20.63 V 71.6797 c 0,-22.0703 -4.96,-38.3594 -14.85,-48.9102 -9.8,-10.6211 -24.92,-15.92966 -45.31,-15.92966 -14.92,0 -26.72,3.42966 -35.47,10.30856 -8.67,6.8008 -13.86,16.6797 -15.62,29.6914 h 22.5 c 1.25,-6.9609 4.3,-12.3515 9.22,-16.1015 5,-3.8281 11.29,-5.7774 18.9,-5.7774 z m 4.38,151.5591 c -12.31,0 -21.33,-3.899 -27.03,-11.719 -5.63,-7.813 -8.44,-20.231 -8.44,-37.18 0,-16.062 3.05,-28.4413 9.22,-37.1913 6.13,-8.668 14.88,-12.9688 26.25,-12.9688 10.62,0 19.14,3.9493 25.62,11.8789 6.57,8 9.85,18.5902 9.85,31.7112 0,18.437 -2.97,32.269 -8.91,41.57 -5.86,9.258 -14.69,13.899 -26.56,13.899 z" /><path
         id="path86"
         style="fill:#ffffff;fill-opacity:1;fill-rule:nonzero;stroke:none"
         d="m 1536.68,61.9883 h 22.0313 v 179.383 H 1536.68 Z" /><path
         id="path88"
         style="fill:#ffffff;fill-opacity:1;fill-rule:nonzero;stroke:none"
         d="m 1645.16,58.3984 c -18.13,0 -32.82,6.3321 -44.07,19.0625 -11.17,12.6993 -16.71,29.3791 -16.71,50.0001 0,20.629 5.54,37.269 16.71,50 11.25,12.699 25.94,19.059 44.07,19.059 18.2,0 32.89,-6.36 44.06,-19.059 11.13,-12.731 16.72,-29.371 16.72,-50 0,-20.621 -5.59,-37.3008 -16.72,-50.0001 -11.17,-12.7304 -25.86,-19.0625 -44.06,-19.0625 z m 0,18.9024 c 11.44,0 20.62,4.539 27.5,13.5976 6.87,9.0625 10.31,21.2496 10.31,36.5626 0,15.309 -3.44,27.5 -10.31,36.559 -6.88,9.07 -16.06,13.601 -27.5,13.601 -11.57,0 -20.78,-4.531 -27.66,-13.601 -6.8,-9.059 -10.16,-21.25 -10.16,-36.559 0,-15.313 3.36,-27.5001 10.16,-36.5626 6.88,-9.0586 16.09,-13.5976 27.66,-13.5976 z" /><path
         id="path90"
         style="fill:#ffffff;fill-opacity:1;fill-rule:nonzero;stroke:none"
         d="m 1755.39,61.9883 -37.03,130.6327 h 24.06 l 25.16,-104.0702 25.47,104.0702 h 24.37 l 26.25,-104.6913 26.56,104.6913 h 21.72 L 1855.08,61.9883 h -23.6 L 1804.45,164.02 1778.98,61.9883 Z" /></g></g></svg>
