<?xml version="1.0" encoding="utf-8"?>
<!-- Generator: Adobe Illustrator 26.0.2, SVG Export Plug-In . SVG Version: 6.00 Build 0)  -->
<svg version="1.1" id="Layer_1" xmlns="http://www.w3.org/2000/svg" xmlns:xlink="http://www.w3.org/1999/xlink" x="0px" y="0px"
	 viewBox="0 0 2000 2000" style="enable-background:new 0 0 2000 2000;" xml:space="preserve">
<style type="text/css">
	.st0{fill:url(#SVGID_1_);}
	.st1{fill:url(#SVGID_00000152266199129677426890000018302568131489122477_);}
	.st2{font-family:'Nexa-Bold';}
	.st3{font-size:191.6593px;}
</style>
<g>
	
		<linearGradient id="SVGID_1_" gradientUnits="userSpaceOnUse" x1="648.7374" y1="268.2598" x2="648.7374" y2="1478.2548" gradientTransform="matrix(1 0 0 -1 0 2000)">
		<stop  offset="6.940105e-07" style="stop-color:#0076B4"/>
		<stop  offset="1" style="stop-color:#00FFFF"/>
	</linearGradient>
	<polygon class="st0" points="793.5,786.4 721.2,744.6 684.9,723.8 648.8,702.7 612.6,681.9 540.2,640.1 504.1,619.2 467.9,598.4 
		467.9,681.9 504.1,702.7 540.2,723.8 576.5,744.6 648.8,786.4 684.9,807.2 757.3,849 757.3,1225 721.2,1245.9 648.8,1287.6 
		612.6,1308.5 540.2,1350.2 540.2,1266.8 576.5,1245.9 612.6,1225 648.8,1204.1 684.9,1183.3 684.9,1099.6 648.8,1120.5 
		612.6,1141.5 540.2,1183.3 540.2,1099.6 576.5,1078.7 612.6,1057.9 648.8,1037 684.9,1016.1 684.9,890.7 648.8,869.9 612.6,849 
		540.2,807.2 504.1,786.4 467.9,765.5 467.9,974.4 504.1,953.5 540.2,932.6 540.2,890.7 576.5,911.6 612.6,932.6 612.6,974.4 
		576.5,995.3 540.2,1016.1 504.1,1037 467.9,1057.9 467.9,1475.6 540.2,1433.9 576.5,1413 648.8,1371.1 684.9,1350.2 757.3,1308.5 
		793.5,1287.6 829.6,1266.8 829.6,807.2 	"/>
	
		<linearGradient id="SVGID_00000089564954339771874810000003389891628152188579_" gradientUnits="userSpaceOnUse" x1="229.708" y1="268.2598" x2="229.708" y2="1478.2548" gradientTransform="matrix(1 0 0 -1 0 2000)">
		<stop  offset="6.940105e-07" style="stop-color:#0076B4"/>
		<stop  offset="1" style="stop-color:#00FFFF"/>
	</linearGradient>
	<polygon style="fill:url(#SVGID_00000089564954339771874810000003389891628152188579_);" points="338.2,640.1 265.9,681.9 
		229.8,702.7 193.5,723.8 157.4,744.6 85.1,786.4 48.8,807.2 48.8,1266.8 85.1,1287.6 121.2,1308.5 193.5,1350.2 229.8,1371.1 
		302.1,1413 338.2,1433.9 410.6,1475.6 410.6,1057.9 374.5,1037 338.2,1016.1 302.1,995.3 265.9,974.4 265.9,932.6 302.1,911.6 
		338.2,890.7 338.2,932.6 374.5,953.5 410.6,974.4 410.6,765.5 374.5,786.4 338.2,807.2 265.9,849 229.8,869.9 193.5,890.7 
		193.5,1016.1 229.8,1037 265.9,1057.9 302.1,1078.7 338.2,1099.6 338.2,1183.3 265.9,1141.5 229.8,1120.5 193.5,1099.6 
		193.5,1183.3 229.8,1204.1 265.9,1225 302.1,1245.9 338.2,1266.8 338.2,1350.2 265.9,1308.5 229.8,1287.6 157.4,1245.9 121.2,1225 
		121.2,849 193.5,807.2 229.8,786.4 302.1,744.6 338.2,723.8 374.5,702.7 410.6,681.9 410.6,598.4 374.5,619.2 	"/>
</g>
<text transform="matrix(1 0 0 1 931.4746 984.7856)" class="st2 st3">SOLUTION </text>
<text transform="matrix(1 0 0 1 931.4746 1214.8223)" class="st2 st3">STAKE</text>
</svg>
