<?xml version="1.0" encoding="utf-8"?>
<!-- Generator: Adobe Illustrator 26.0.2, SVG Export Plug-In . SVG Version: 6.00 Build 0)  -->
<svg version="1.1" id="Layer_1" xmlns="http://www.w3.org/2000/svg" xmlns:xlink="http://www.w3.org/1999/xlink" x="0px" y="0px"
	 viewBox="0 0 2000 2000" style="enable-background:new 0 0 2000 2000;" xml:space="preserve">
<style type="text/css">
	.st0{fill:url(#SVGID_1_);}
	.st1{fill:url(#SVGID_00000052788849769419102520000009606301878965171131_);}
</style>
<g>
	
		<linearGradient id="SVGID_1_" gradientUnits="userSpaceOnUse" x1="1431.0278" y1="-378.8423" x2="1431.0278" y2="2094.4377" gradientTransform="matrix(1 0 0 -1 0 2000)">
		<stop  offset="6.940105e-07" style="stop-color:#0076B4"/>
		<stop  offset="1" style="stop-color:#00FFFF"/>
	</linearGradient>
	<polygon class="st0" points="1726.9,446.5 1578.8,361 1504.9,318.2 1431,275.7 1357.1,233 1209.1,147.4 1135.2,104.9 1061.3,62.2 
		1061.3,233 1135.2,275.7 1209.1,318.2 1283,361 1431,446.5 1504.9,489 1652.7,574.5 1652.7,1343 1578.8,1385.7 1431,1471 
		1357.1,1513.7 1209.1,1599.3 1209.1,1428.5 1283,1385.7 1357.1,1343 1431,1300.4 1504.9,1257.7 1504.9,1086.9 1431,1129.7 
		1357.1,1172.2 1209.1,1257.7 1209.1,1086.9 1283,1044.1 1357.1,1001.4 1431,958.9 1504.9,916.1 1504.9,659.8 1431,617.3 
		1357.1,574.5 1209.1,489 1135.2,446.5 1061.3,403.8 1061.3,830.6 1135.2,788.1 1209.1,745.3 1209.1,659.8 1283,702.6 1357.1,745.3 
		1357.1,830.6 1283,873.4 1209.1,916.1 1135.2,958.9 1061.3,1001.4 1061.3,1855.3 1209.1,1770.1 1283,1727.3 1431,1641.8 
		1504.9,1599.3 1652.7,1513.7 1726.9,1471 1800.8,1428.5 1800.8,489 	"/>
	
		<linearGradient id="SVGID_00000127042077120069922350000009722846754554513308_" gradientUnits="userSpaceOnUse" x1="574.3723" y1="-378.8423" x2="574.3723" y2="2094.4377" gradientTransform="matrix(1 0 0 -1 0 2000)">
		<stop  offset="6.940105e-07" style="stop-color:#0076B4"/>
		<stop  offset="1" style="stop-color:#00FFFF"/>
	</linearGradient>
	<polygon style="fill:url(#SVGID_00000127042077120069922350000009722846754554513308_);" points="796.3,147.4 648.3,233 
		574.4,275.7 500.5,318.2 426.6,361 278.5,446.5 204.6,489 204.6,1428.5 278.5,1471 352.7,1513.7 500.5,1599.3 574.4,1641.8 
		722.2,1727.3 796.3,1770.1 944.1,1855.3 944.1,1001.4 870.2,958.9 796.3,916.1 722.2,873.4 648.3,830.6 648.3,745.3 722.2,702.6 
		796.3,659.8 796.3,745.3 870.2,788.1 944.1,830.6 944.1,403.8 870.2,446.5 796.3,489 648.3,574.5 574.4,617.3 500.5,659.8 
		500.5,916.1 574.4,958.9 648.3,1001.4 722.2,1044.1 796.3,1086.9 796.3,1257.7 648.3,1172.2 574.4,1129.7 500.5,1086.9 
		500.5,1257.7 574.4,1300.4 648.3,1343 722.2,1385.7 796.3,1428.5 796.3,1599.3 648.3,1513.7 574.4,1471 426.6,1385.7 352.7,1343 
		352.7,574.5 500.5,489 574.4,446.5 722.2,361 796.3,318.2 870.2,275.7 944.1,233 944.1,62.2 870.2,104.9 	"/>
</g>
</svg>
